# xmcd
#
# Track frame offsets:
#	150
#	19576
#	34796
#	51722
#	70278
#	88956
#	102761
#	122710
#	138190
#	155226
#	171911
#	187989
#
# Disc length: 2791 seconds
#
# Revision: 1
# Processed by: cddbd v1.5.2PL0 Copyright (c) Steve Scherf et al.
# Submitted via: audiograbber 1.83.01
#
DISCID=a90ae50c
DTITLE=Billy Ray Cyrus - Back To Tennessee
DYEAR=2009
DGENRE=Country
TTITLE0=Back To Tennessee
TTITLE1=Thrillbilly
TTITLE2=He's Mine
TTITLE3=Somebody Said A Prayer
TTITLE4=A Good Day
TTITLE5=I Could Be The One
TTITLE6=Like Nothing Else
TTITLE7=Country As Country Can Be
TTITLE8=Love Is The Lesson
TTITLE9=Give It To Somebody
TTITLE10=Real Gone
TTITLE11=Butterfly Fly Away (Feat. Miley Cyrus)
EXTD=
EXTT0=
EXTT1=
EXTT2=
EXTT3=
EXTT4=
EXTT5=
EXTT6=
EXTT7=
EXTT8=
EXTT9=
EXTT10=
EXTT11=
PLAYORDER=
